<?xml version="1.0" standalone="no"?>
<!DOCTYPE svg PUBLIC "-//W3C//DTD SVG 20010904//EN"
 "http://www.w3.org/TR/2001/REC-SVG-20010904/DTD/svg10.dtd">
<svg version="1.0" xmlns="http://www.w3.org/2000/svg"
 width="1049.000000pt" height="903.000000pt" viewBox="0 0 1049.000000 903.000000"
 preserveAspectRatio="xMidYMid meet">

<g transform="translate(0.000000,903.000000) scale(0.100000,-0.100000)"
fill="#000000" stroke="none">
<path d="M4838 8033 c-223 -225 -413 -422 -421 -438 -12 -24 -28 -35 -74 -49
-55 -17 -483 -231 -1035 -517 -15 -8 -15 -13 6 -51 13 -24 128 -248 255 -500
127 -251 247 -476 266 -501 33 -43 35 -51 35 -119 0 -40 13 -156 30 -258 16
-102 48 -300 70 -440 60 -381 69 -432 74 -437 3 -3 49 2 103 11 104 17 483 77
798 126 105 17 217 39 251 50 57 19 64 19 98 5 46 -19 60 -22 456 -85 630
-101 702 -111 708 -105 6 6 151 904 172 1064 6 46 8 96 5 111 -5 22 2 38 30
76 20 27 69 112 109 189 159 307 437 857 434 859 -2 1 -61 31 -133 68 -688
349 -868 439 -916 453 -43 14 -60 25 -74 49 -16 29 -823 846 -835 846 -3 0
-188 -183 -412 -407z m793 -90 c358 -360 377 -381 408 -452 69 -151 50 -325
-48 -455 -47 -61 -128 -126 -182 -145 -27 -9 -30 -7 -44 19 -23 45 -19 53 41
84 65 34 117 91 152 166 36 76 37 198 3 285 -22 55 -50 87 -367 405 l-344 345
-319 -319 -319 -319 -54 9 -53 10 370 372 c203 205 372 372 375 372 3 0 175
-170 381 -377z m-1025 -477 c171 -45 314 -205 331 -370 6 -61 12 -56 -64 -60
-12 -1 -19 14 -29 60 -30 151 -135 257 -279 284 -115 22 -155 11 -390 -109
-115 -60 -306 -157 -422 -216 -117 -60 -213 -113 -213 -118 0 -4 90 -185 201
-402 l200 -394 -24 -46 c-18 -36 -26 -44 -34 -33 -14 17 -475 920 -471 923 24
19 934 471 967 480 62 18 164 18 227 1z m1705 -84 c63 -32 263 -135 444 -227
182 -92 332 -169 333 -171 7 -5 -440 -878 -478 -934 -152 -228 -496 -256 -690
-55 l-34 35 32 32 32 32 37 -35 c58 -54 93 -75 157 -94 80 -23 174 -16 250 18
93 43 139 101 241 303 50 98 145 285 211 416 120 235 121 239 100 252 -11 7
-187 98 -391 201 -203 103 -375 192 -381 199 -6 6 -14 32 -18 58 -5 46 -5 47
17 39 13 -5 75 -36 138 -69z m-436 38 c22 -42 20 -46 -31 -72 -25 -12 -70 -48
-98 -79 -99 -106 -122 -252 -61 -387 37 -82 101 -140 219 -199 53 -26 96 -51
96 -55 0 -5 -20 -48 -44 -96 -24 -48 -49 -106 -56 -130 -11 -34 -22 -47 -58
-67 -24 -14 -46 -25 -48 -25 -7 0 7 83 23 135 8 28 26 69 39 92 13 23 24 44
24 47 0 3 -28 19 -61 37 -176 94 -267 248 -257 437 6 110 43 197 120 278 50
53 138 114 165 114 7 0 19 -13 28 -30z m-1357 -174 c24 -120 97 -216 200 -264
49 -23 70 -27 152 -27 127 0 178 24 297 137 l88 84 35 -39 c35 -41 136 -128
166 -145 15 -8 40 -100 30 -110 -10 -10 -115 54 -174 105 l-63 56 -42 -40
c-106 -102 -211 -147 -337 -147 -216 1 -395 148 -441 363 -14 69 -9 81 39 81
l39 0 11 -54z m331 -483 c12 -10 -100 -107 -160 -138 l-68 -36 34 -70 c18 -38
39 -102 46 -141 34 -191 -68 -386 -249 -475 -74 -37 -79 -38 -188 -38 -70 0
-117 4 -124 11 -8 8 -8 22 -3 45 l9 34 105 0 c92 0 110 4 160 28 62 30 136
102 167 164 11 21 25 67 32 101 16 88 0 157 -60 274 -28 53 -50 100 -50 105 0
4 46 31 101 58 55 28 110 60 121 73 19 19 28 21 72 16 28 -4 53 -8 55 -11z
m-324 -465 c4 -4 3 -24 -2 -44 l-8 -37 -105 -1 c-95 -1 -110 -4 -163 -31 -119
-59 -198 -184 -199 -310 0 -33 11 -134 26 -225 91 -578 115 -722 118 -724 2
-2 201 28 443 67 l440 70 39 -37 c22 -19 37 -38 34 -41 -2 -3 -90 -18 -194
-35 -104 -16 -317 -50 -474 -75 -157 -25 -303 -48 -326 -51 l-41 -6 -7 43
c-10 62 -70 439 -117 739 -44 277 -44 318 -7 420 49 131 155 231 293 276 41
14 237 15 250 2z m1766 -30 c42 -21 93 -57 119 -83 l44 -45 -31 -32 -32 -31
-41 41 c-23 23 -67 54 -98 69 -50 25 -68 28 -152 28 -85 0 -101 -3 -155 -29
-69 -35 -134 -98 -165 -161 -12 -25 -31 -98 -42 -162 -12 -65 -21 -119 -22
-119 0 -1 -37 4 -81 12 -44 7 -109 13 -145 13 -63 1 -68 3 -104 40 l-38 39 28
6 c82 16 108 17 179 6 42 -6 79 -9 82 -6 3 2 11 38 19 78 33 177 137 296 314
364 23 9 70 13 141 11 99 -2 110 -4 180 -39z m-1487 -203 c15 -31 34 -92 43
-136 l16 -80 56 8 c193 28 357 -33 457 -170 67 -90 88 -154 88 -267 0 -99 -16
-162 -56 -227 -17 -29 -22 -32 -41 -22 -53 28 -56 35 -31 85 70 138 45 299
-63 410 -90 93 -211 121 -396 91 -48 -8 -89 -12 -91 -8 -2 3 -11 53 -21 111
-9 58 -23 120 -31 138 -12 30 -11 37 8 77 12 25 25 45 28 45 4 0 19 -25 34
-55z m1727 -353 c-11 -70 -34 -215 -51 -322 -62 -393 -91 -564 -95 -568 -2 -2
-50 3 -107 13 -57 9 -186 29 -288 45 -686 109 -689 109 -778 180 -157 124
-216 318 -152 504 10 30 26 66 35 80 l17 25 40 -20 c21 -11 38 -23 36 -27 -49
-93 -53 -108 -53 -207 0 -89 3 -106 28 -156 33 -68 100 -132 171 -165 50 -23
210 -51 833 -148 l144 -22 4 20 c3 12 21 122 41 246 19 124 48 310 64 413 17
103 30 192 30 197 0 13 94 60 98 49 2 -5 -6 -67 -17 -137z"/>
<path d="M2100 3740 l0 -590 430 0 430 0 0 60 0 60 -362 2 -363 3 0 200 0 200
320 5 320 5 3 57 3 58 -323 2 -323 3 0 200 0 200 358 0 357 0 0 63 0 62 -425
0 -425 0 0 -590z"/>
<path d="M3340 3740 l0 -590 65 0 65 0 2 228 3 227 166 3 167 2 171 -230 172
-230 79 0 c44 0 80 1 80 3 0 2 -79 109 -176 238 -147 196 -172 235 -157 240
10 4 39 15 66 24 105 37 191 122 217 213 15 57 12 172 -7 228 -24 70 -119 164
-196 193 -91 33 -171 41 -454 41 l-263 0 0 -590z m624 446 c103 -31 159 -93
173 -191 13 -95 -37 -184 -131 -233 -51 -27 -52 -27 -293 -30 l-243 -3 0 235
0 236 223 0 c165 0 236 -4 271 -14z"/>
<path d="M4678 4324 c-5 -4 -8 -270 -8 -591 l0 -583 253 0 c220 0 264 3 331
20 221 56 389 221 436 430 17 70 17 199 1 275 -33 154 -159 312 -305 381 -128
60 -166 66 -446 71 -140 3 -258 2 -262 -3z m532 -135 c238 -55 387 -278 351
-526 -21 -146 -103 -264 -229 -331 -89 -48 -170 -62 -359 -62 l-163 0 0 465 0
465 178 0 c97 0 197 -5 222 -11z"/>
<path d="M6037 4323 c-4 -3 -7 -269 -7 -590 l0 -583 430 0 430 0 0 60 0 60
-360 0 -360 0 0 205 0 205 320 0 320 0 0 60 0 60 -320 0 -320 0 0 205 0 205
360 0 361 0 -3 58 -3 57 -421 3 c-231 1 -424 -1 -427 -5z"/>
<path d="M7277 4323 c-4 -3 -7 -269 -7 -590 l0 -583 65 0 65 0 0 472 c0 405 2
470 14 458 8 -8 103 -145 211 -305 109 -159 201 -294 205 -298 4 -5 99 126
210 290 111 164 209 305 216 313 12 12 14 -55 14 -458 l0 -472 65 0 65 0 0
590 0 591 -67 -3 -66 -3 -211 -317 c-116 -174 -214 -317 -217 -317 -3 -1 -102
143 -219 319 l-213 320 -62 0 c-34 0 -65 -3 -68 -7z"/>
<path d="M680 2803 l0 -53 4565 0 4565 0 0 53 0 52 -4565 0 -4565 0 0 -52z"/>
<path d="M1896 2443 c-11 -22 -215 -484 -243 -550 -4 -10 10 -13 49 -13 l55 0
27 70 28 70 139 0 140 0 10 -27 c5 -16 19 -48 32 -73 l22 -45 51 5 50 5 -127
290 -127 290 -45 3 c-42 3 -47 0 -61 -25z m150 -330 c-2 -2 -46 -2 -98 -1
l-95 3 32 75 c18 41 40 93 49 115 l17 39 49 -114 c28 -62 48 -115 46 -117z"/>
<path d="M5149 2373 c-23 -54 -80 -183 -126 -288 -45 -104 -83 -194 -83 -200
0 -7 19 -9 52 -5 l52 5 26 65 26 65 141 3 140 3 28 -71 28 -70 55 0 c43 0 53
3 49 14 -3 8 -61 141 -128 295 l-122 281 -48 0 -47 0 -43 -97z m140 -152 l49
-111 -100 0 c-55 0 -98 4 -96 9 20 54 93 219 95 217 2 -2 26 -53 52 -115z"/>
<path d="M6489 2403 c-27 -61 -71 -160 -189 -435 l-38 -86 51 -4 50 -3 33 72
33 73 135 0 136 0 31 -70 32 -70 53 0 53 0 -29 68 c-15 37 -47 110 -70 162
-23 52 -54 124 -70 160 -15 36 -42 95 -58 133 l-31 67 -46 0 -46 0 -30 -67z
m125 -176 c25 -59 46 -110 46 -112 0 -3 -43 -5 -95 -5 -52 0 -95 3 -95 8 0 10
92 223 95 220 2 -2 24 -52 49 -111z"/>
<path d="M7814 2459 c-49 -14 -126 -70 -156 -114 -37 -53 -62 -154 -53 -214
16 -110 97 -213 192 -245 26 -9 78 -16 117 -16 124 0 229 67 279 179 30 66 29
178 -2 249 -29 65 -103 134 -168 156 -50 17 -159 20 -209 5z m164 -95 c117
-48 163 -177 106 -293 -64 -127 -222 -147 -318 -41 -93 103 -65 263 58 325 57
29 101 31 154 9z"/>
<path d="M1245 2285 l115 -176 0 -114 0 -115 55 0 55 0 0 118 0 119 110 167
c61 92 110 169 110 171 0 3 -26 5 -57 5 l-58 -1 -78 -125 c-43 -68 -82 -122
-86 -120 -4 3 -41 59 -82 125 l-74 120 -62 1 -63 0 115 -175z"/>
<path d="M2350 2415 l0 -45 165 -2 164 -3 -169 -205 c-152 -184 -169 -209
-170 -242 l0 -38 240 0 240 0 0 45 0 45 -169 2 -170 3 169 205 c152 184 170
209 170 243 l0 37 -235 0 -235 0 0 -45z"/>
<path d="M2960 2170 l0 -290 50 0 50 0 0 290 0 290 -50 0 -50 0 0 -290z"/>
<path d="M3220 2170 l0 -290 205 0 205 0 0 45 0 45 -155 0 -155 0 0 245 0 245
-50 0 -50 0 0 -290z"/>
<path d="M3740 2170 l0 -290 50 0 49 0 3 290 3 290 -52 0 -53 0 0 -290z"/>
<path d="M4000 2170 l0 -290 50 0 50 0 0 200 c0 110 3 200 8 200 4 0 45 -58
92 -129 59 -89 88 -126 96 -120 6 5 49 66 95 136 l84 126 3 -206 2 -207 50 0
50 0 0 290 0 290 -57 0 -58 0 -85 -135 c-47 -74 -87 -135 -90 -134 -3 0 -43
61 -90 134 l-85 135 -57 0 -58 0 0 -290z"/>
<path d="M5650 2170 l0 -290 50 0 50 0 2 203 3 202 155 -202 155 -202 48 0 47
-1 0 290 0 290 -50 0 -50 0 0 -195 c0 -107 -3 -195 -7 -195 -5 0 -75 88 -158
195 l-149 195 -48 0 -48 0 0 -290z"/>
<path d="M6970 2170 l0 -292 163 4 c153 3 165 5 212 30 106 56 155 137 155
258 0 121 -49 202 -155 258 -47 25 -59 27 -212 30 l-163 4 0 -292z m339 167
c103 -68 114 -242 19 -322 -38 -32 -88 -45 -175 -45 l-73 0 0 201 0 201 94 -4
c81 -3 99 -7 135 -31z"/>
<path d="M8340 2170 l0 -290 205 0 205 0 0 45 0 45 -150 0 -150 0 0 245 0 245
-55 0 -55 0 0 -290z"/>
<path d="M8840 2263 c0 -109 5 -214 10 -234 17 -61 52 -102 109 -131 45 -23
68 -28 128 -28 113 0 179 36 226 125 20 37 22 58 25 253 l4 212 -50 0 -50 0
-4 -197 c-3 -216 -10 -244 -65 -280 -39 -26 -133 -24 -170 3 -57 41 -63 70
-63 282 l0 192 -50 0 -50 0 0 -197z"/>
<path d="M4490 1670 l0 -50 50 0 50 0 0 50 0 50 -50 0 -50 0 0 -50z"/>
<path d="M6399 1716 c-2 -2 -3 -25 -1 -50 l4 -46 50 0 49 0 -3 48 -3 47 -45 3
c-25 2 -48 1 -51 -2z"/>
<path d="M4875 1571 c-152 -39 -190 -233 -60 -304 11 -6 62 -23 113 -38 102
-30 132 -49 132 -86 0 -81 -105 -106 -215 -51 -22 11 -47 27 -56 35 -15 12
-20 10 -48 -26 l-31 -39 29 -22 c67 -47 122 -64 211 -65 72 0 91 4 128 25 71
40 103 113 82 188 -16 61 -63 96 -177 131 -119 37 -143 52 -143 92 0 72 102
94 201 43 55 -27 62 -26 92 25 l17 30 -62 30 c-67 33 -158 47 -213 32z"/>
<path d="M5971 1571 c-43 -11 -80 -39 -109 -82 -20 -29 -23 -44 -20 -96 6 -98
34 -120 214 -172 83 -24 107 -46 102 -93 -2 -27 -10 -36 -42 -52 -35 -17 -46
-18 -95 -8 -31 7 -77 25 -103 41 l-47 29 -25 -33 c-14 -19 -26 -38 -26 -42 0
-20 111 -75 174 -86 122 -21 220 16 257 97 23 52 23 90 0 142 -21 47 -79 80
-199 114 -79 23 -112 47 -112 83 0 68 107 89 203 41 l51 -25 28 33 c15 18 28
36 28 40 0 4 -28 21 -62 37 -68 34 -158 47 -217 32z"/>
<path d="M3960 1276 l0 -296 210 0 210 0 0 45 0 45 -155 0 -155 0 -2 248 -3
247 -52 3 -53 3 0 -295z"/>
<path d="M4490 1275 l0 -295 50 0 50 0 0 295 0 295 -50 0 -50 0 0 -295z"/>
<path d="M5290 1275 l0 -295 220 0 220 0 0 45 0 45 -170 0 -170 0 0 80 0 80
150 0 150 0 0 45 0 45 -150 0 -151 0 3 78 3 77 163 3 162 2 0 45 0 45 -215 0
-215 0 0 -295z"/>
<path d="M6400 1275 l0 -295 50 0 50 0 0 295 0 295 -50 0 -50 0 0 -295z"/>
<path d="M3380 630 l0 -50 1855 0 1855 0 0 50 0 50 -1855 0 -1855 0 0 -50z"/>
</g>
</svg>
