{
	"asset":{
		"generator":"Khronos glTF Blender I/O v4.0.44",
		"version":"2.0"
	},
	"scene":0,
	"scenes":[
		{
			"name":"Scene",
			"nodes":[
				0,
				1,
				2,
				3,
				4
			]
		}
	],
	"nodes":[
		{
			"mesh":0,
			"name":"Icosphere.001",
			"translation":[
				0,
				0,
				-2.631391763687134
			]
		},
		{
			"mesh":1,
			"name":"Icosphere.002",
			"scale":[
				1.5849531888961792,
				1.5849531888961792,
				1.5849531888961792
			],
			"translation":[
				0,
				2.500990629196167,
				-0.36631500720977783
			]
		},
		{
			"mesh":2,
			"name":"Cylinder",
			"rotation":[
				0.3826834261417389,
				0,
				0,
				0.9238795638084412
			],
			"scale":[
				0.2103804349899292,
				0.2103804349899292,
				0.2103804349899292
			],
			"translation":[
				0,
				0.24137860536575317,
				-2.5030927658081055
			]
		},
		{
			"mesh":3,
			"name":"Icosphere.003",
			"rotation":[
				0,
				0.9999990463256836,
				0,
				0.0013750350335612893
			],
			"translation":[
				-0.00017641577869653702,
				0,
				2.054952621459961
			]
		},
		{
			"mesh":4,
			"name":"Cylinder.001",
			"rotation":[
				0.0005262030754238367,
				0.9238786697387695,
				-0.38268306851387024,
				0.0012703665997833014
			],
			"scale":[
				0.2103804498910904,
				0.2103804498910904,
				0.2103804349899292
			],
			"translation":[
				0.00017641512386035174,
				0.24137860536575317,
				1.9266539812088013
			]
		}
	],
	"materials":[
		{
			"doubleSided":true,
			"name":"Material",
			"pbrMetallicRoughness":{
				"baseColorFactor":[
					0.800000011920929,
					0.800000011920929,
					0.800000011920929,
					1
				],
				"metallicFactor":0,
				"roughnessFactor":0.5
			}
		},
		{
			"doubleSided":true,
			"name":"Material.001",
			"pbrMetallicRoughness":{
				"baseColorFactor":[
					0.8001416921615601,
					0.0015754984924569726,
					0.003098064800724387,
					1
				],
				"metallicFactor":0,
				"roughnessFactor":0.5
			}
		},
		{
			"doubleSided":true,
			"name":"Material.002",
			"pbrMetallicRoughness":{
				"baseColorFactor":[
					0.07100604474544525,
					0.07100604474544525,
					0.07100604474544525,
					1
				],
				"metallicFactor":0,
				"roughnessFactor":0.5
			}
		}
	],
	"meshes":[
		{
			"name":"Icosphere.001",
			"primitives":[
				{
					"attributes":{
						"POSITION":0,
						"NORMAL":1,
						"TEXCOORD_0":2
					},
					"indices":3,
					"material":0
				}
			]
		},
		{
			"name":"Icosphere.002",
			"primitives":[
				{
					"attributes":{
						"POSITION":4,
						"NORMAL":5,
						"TEXCOORD_0":6
					},
					"indices":3,
					"material":1
				}
			]
		},
		{
			"name":"Cylinder",
			"primitives":[
				{
					"attributes":{
						"POSITION":7,
						"NORMAL":8,
						"TEXCOORD_0":9
					},
					"indices":10,
					"material":2
				}
			]
		},
		{
			"name":"Icosphere.003",
			"primitives":[
				{
					"attributes":{
						"POSITION":11,
						"NORMAL":12,
						"TEXCOORD_0":13
					},
					"indices":3,
					"material":0
				}
			]
		},
		{
			"name":"Cylinder.001",
			"primitives":[
				{
					"attributes":{
						"POSITION":14,
						"NORMAL":15,
						"TEXCOORD_0":16
					},
					"indices":10,
					"material":2
				}
			]
		}
	],
	"accessors":[
		{
			"bufferView":0,
			"componentType":5126,
			"count":245760,
			"max":[
				1,
				1,
				0.9999999403953552
			],
			"min":[
				-1,
				-1,
				-0.9999999403953552
			],
			"type":"VEC3"
		},
		{
			"bufferView":1,
			"componentType":5126,
			"count":245760,
			"type":"VEC3"
		},
		{
			"bufferView":2,
			"componentType":5126,
			"count":245760,
			"type":"VEC2"
		},
		{
			"bufferView":3,
			"componentType":5125,
			"count":245760,
			"type":"SCALAR"
		},
		{
			"bufferView":4,
			"componentType":5126,
			"count":245760,
			"max":[
				1,
				1,
				0.9999999403953552
			],
			"min":[
				-1,
				-1,
				-0.9999999403953552
			],
			"type":"VEC3"
		},
		{
			"bufferView":5,
			"componentType":5126,
			"count":245760,
			"type":"VEC3"
		},
		{
			"bufferView":6,
			"componentType":5126,
			"count":245760,
			"type":"VEC2"
		},
		{
			"bufferView":7,
			"componentType":5126,
			"count":192,
			"max":[
				1,
				10.585479736328125,
				1
			],
			"min":[
				-1,
				-1,
				-1
			],
			"type":"VEC3"
		},
		{
			"bufferView":8,
			"componentType":5126,
			"count":192,
			"type":"VEC3"
		},
		{
			"bufferView":9,
			"componentType":5126,
			"count":192,
			"type":"VEC2"
		},
		{
			"bufferView":10,
			"componentType":5123,
			"count":372,
			"type":"SCALAR"
		},
		{
			"bufferView":11,
			"componentType":5126,
			"count":245760,
			"max":[
				1,
				1,
				0.9999999403953552
			],
			"min":[
				-1,
				-1,
				-0.9999999403953552
			],
			"type":"VEC3"
		},
		{
			"bufferView":12,
			"componentType":5126,
			"count":245760,
			"type":"VEC3"
		},
		{
			"bufferView":13,
			"componentType":5126,
			"count":245760,
			"type":"VEC2"
		},
		{
			"bufferView":14,
			"componentType":5126,
			"count":192,
			"max":[
				1,
				10.585479736328125,
				1
			],
			"min":[
				-1,
				-1,
				-1
			],
			"type":"VEC3"
		},
		{
			"bufferView":15,
			"componentType":5126,
			"count":192,
			"type":"VEC3"
		},
		{
			"bufferView":16,
			"componentType":5126,
			"count":192,
			"type":"VEC2"
		}
	],
	"bufferViews":[
		{
			"buffer":0,
			"byteLength":2949120,
			"byteOffset":0,
			"target":34962
		},
		{
			"buffer":0,
			"byteLength":2949120,
			"byteOffset":2949120,
			"target":34962
		},
		{
			"buffer":0,
			"byteLength":1966080,
			"byteOffset":5898240,
			"target":34962
		},
		{
			"buffer":0,
			"byteLength":983040,
			"byteOffset":7864320,
			"target":34963
		},
		{
			"buffer":0,
			"byteLength":2949120,
			"byteOffset":8847360,
			"target":34962
		},
		{
			"buffer":0,
			"byteLength":2949120,
			"byteOffset":11796480,
			"target":34962
		},
		{
			"buffer":0,
			"byteLength":1966080,
			"byteOffset":14745600,
			"target":34962
		},
		{
			"buffer":0,
			"byteLength":2304,
			"byteOffset":16711680,
			"target":34962
		},
		{
			"buffer":0,
			"byteLength":2304,
			"byteOffset":16713984,
			"target":34962
		},
		{
			"buffer":0,
			"byteLength":1536,
			"byteOffset":16716288,
			"target":34962
		},
		{
			"buffer":0,
			"byteLength":744,
			"byteOffset":16717824,
			"target":34963
		},
		{
			"buffer":0,
			"byteLength":2949120,
			"byteOffset":16718568,
			"target":34962
		},
		{
			"buffer":0,
			"byteLength":2949120,
			"byteOffset":19667688,
			"target":34962
		},
		{
			"buffer":0,
			"byteLength":1966080,
			"byteOffset":22616808,
			"target":34962
		},
		{
			"buffer":0,
			"byteLength":2304,
			"byteOffset":24582888,
			"target":34962
		},
		{
			"buffer":0,
			"byteLength":2304,
			"byteOffset":24585192,
			"target":34962
		},
		{
			"buffer":0,
			"byteLength":1536,
			"byteOffset":24587496,
			"target":34962
		}
	],
	"buffers":[
		{
			"byteLength":24589032,
			"uri":"su.bin"
		}
	]
}
